<?xml version="1.0" encoding="utf-8"?>
<!-- Generator: Adobe Illustrator 26.3.1, SVG Export Plug-In . SVG Version: 6.00 Build 0)  -->
<svg version="1.1" id="Layer_2_00000163761085602692986070000008788426932745633202_"
	 xmlns="http://www.w3.org/2000/svg" xmlns:xlink="http://www.w3.org/1999/xlink" x="0px" y="0px" viewBox="0 0 58.2 53.7"
	 style="enable-background:new 0 0 58.2 53.7;" xml:space="preserve">
<style type="text/css">
	.st0{fill:url(#SVGID_1_);}
</style>
<g id="Layer_1-2">
	
		<linearGradient id="SVGID_1_" gradientUnits="userSpaceOnUse" x1="29.1247" y1="43.77" x2="29.1247" y2="-12.46" gradientTransform="matrix(1 0 0 -1 0 56)">
		<stop  offset="0" style="stop-color:#CC2A5E"/>
		<stop  offset="1" style="stop-color:#763B88"/>
	</linearGradient>
	<path class="st0" d="M55.8,44.5c-0.2,1.2-1.2,2-2.4,1.8c-1.9-0.3-3.8-0.7-5.7-1.1c-0.8-0.2-1.3,0-1.8,0.6
		c-8.9,10.5-24.5,10.5-33.4,0c-0.5-0.6-1-0.8-1.8-0.6c-1.7,0.4-3.5,0.7-5.3,1c-1.6,0.3-2.6-0.4-2.9-1.8c-0.2-1.3,0.5-2.3,2.1-2.7
		L6,41.5c1.7-0.3,3-0.8,3-1s4.1-2,9.4-3.7l1.3-0.4c5.2-1.6,13.8-1.6,19.1,0l1.1,0.3c5.2,1.7,9.5,3.2,9.5,3.3s1,1,2.3,1.3l1.2,0.3
		c0.4,0.1,0.8,0.1,1.2,0.3C55.3,42.3,56,43.4,55.8,44.5L55.8,44.5z M58.2,36.8c0,1.3-1,2.2-2.4,2.3c-1.6,0-3.2,0-4.8,0h-1
		c-0.3,0.4-4.8-0.9-9.9-2.9l-1.7-0.7c-5.1-2-13.5-2-18.6,0l-1.7,0.7c-5.1,2-9.6,3.3-9.9,2.9H7.1c-1.5,0-3.1,0-4.6,0
		c-1.5,0-2.5-0.9-2.6-2.2c0-1.3,1-2.3,2.6-2.3c1.3,0,2.7,0,4,0c0.5,0,0.8-0.2,0.8-0.8c-0.1-5.1-0.1-10.1-0.1-15.2l0-3.3
		c0-3.6,0.1-6.6,0.1-6.6s0.1-2,0.2-4.4s1.3-3.2,2.7-1.8s5,4.6,7.9,7.1l2.8,2.2c0.5,0.4,1.3,0.7,2,0.7l1.6,0c1.8,0,3.6,1,4,2.2
		s1.2,1.2,1.7,0s2.2-2.2,3.8-2.2l1.5,0c0.6,0,1.4-0.3,1.9-0.7l2.8-2.2c3-2.5,6.7-5.7,8.2-7S51,2.4,51,5l0,4.7l0,1.2v0.8
		c0,6,0,7.9,0,7.9c0,5.5,0,10,0,10v1.6c0,0.3,0,0.6,0,0.6v0c0,0,0,0.5,0,1.1l-0.1,0.5c-0.1,0.8,0.2,1.1,1,1c1.3,0,2.7,0,4,0
		C57.3,34.6,58.3,35.5,58.2,36.8L58.2,36.8z M19.7,19.1c-2.5,0-5,2.4-5.9,5.6c-0.9,3.5,0.5,6.9,3.3,7.2c3,0.3,6-2.9,6.5-6.8
		C24.1,21.6,22.2,19.1,19.7,19.1z M29.3,27c1.2,0,2-0.4,1.6-1s-0.8-1.4-1.1-1.9s-0.8-0.5-1.1,0s-0.8,1.4-1.1,1.9S28.1,27,29.3,27z
		 M44.8,24.7c-0.8-3.2-3.4-5.6-5.9-5.6c-2.6,0-4.4,2.5-4,6c0.5,3.9,3.5,7.1,6.5,6.8C44.3,31.7,45.7,28.3,44.8,24.7L44.8,24.7z"/>
</g>
</svg>
