<?xml version="1.0" encoding="UTF-8"?><svg id="Layer_2" xmlns="http://www.w3.org/2000/svg" xmlns:xlink="http://www.w3.org/1999/xlink" viewBox="0 0 529.46 488.48"><defs><style>.cls-1{fill:url(#linear-gradient);}</style><linearGradient id="linear-gradient" x1="264.73" y1="101.61" x2="264.73" y2="625.84" gradientTransform="matrix(1, 0, 0, 1, 0, 0)" gradientUnits="userSpaceOnUse"><stop offset="0" stop-color="#cc2a5e"/><stop offset="1" stop-color="#763a89"/></linearGradient></defs><g id="Layer_1-2"><path class="cls-1" d="M507.05,404.72c-2.06,10.86-10.59,18.11-21.99,16.46-17.39-2.49-34.67-5.94-51.83-9.8-7.34-1.64-11.69,.08-16.51,5.77-80.93,95.11-223.15,95.12-303.57,.01-4.82-5.69-9.19-7.45-16.51-5.76-15.8,3.69-31.77,6.75-47.79,9.35-14.51,2.35-23.76-3.69-26.14-15.89-2.29-11.79,4.67-21.08,18.72-24.26,13.45-3.04,31.22-6.58,31.22-6.58,5.39-1.08,9.49-3.67,9.1-5.77s2.84-7.53,8.09-9.18l166.51-52.12c5.25-1.64,13.83-1.63,19.08,.03l164.44,52.05c5.24,1.66,9.27,4.28,8.96,5.82s3.43,8.11,8.81,9.25c0,0,12.42,2.62,23.58,4.97,3.65,.77,7.36,1.27,10.92,2.35,10.8,3.25,16.89,12.93,14.94,23.31Zm22.41-70.11c-.01,11.88-8.63,20.46-21.63,20.75-14.58,.33-29.16,.09-43.73,.11h-9.36c-2.93,3.59-9.52,4.88-14.65,2.88l-166.04-64.69c-5.13-2-13.51-1.99-18.64,0l-165.85,64.7c-5.12,2-11.54,.7-14.27-2.89h-10.38c-13.9-.03-27.79,.12-41.69-.07-13.65-.18-22.99-8.55-23.23-20.41-.25-12.14,9.43-20.79,23.61-20.92,12.2-.12,24.41-.12,36.61-.04,4.94,.04,7.36-1.53,7.3-7.07-.56-46.04-.98-92.09-1.26-138.13-.17-29.8,.19-79.4,.19-79.4,.04-5.5,.08-10.2,.09-10.45s.21-4.94,.43-10.44l2.42-58.57c.23-5.5,3.59-6.81,7.48-2.92l31.81,31.8c3.89,3.89,10.51,9.98,14.71,13.53,0,0,41.53,35.1,66.68,55.2,4.8,3.84,12.02,6.44,18.16,6.54,14.59,.22,33.76,.34,33.76,.34,5.5,.04,11.53,4.3,13.41,9.47l7.37,20.35c1.87,5.17,5.13,5.24,7.22,.16l8.54-20.68c2.1-5.08,8.32-9.27,13.82-9.31,0,0,16.52-.11,29.77-.31,5.84-.08,12.7-2.59,17.26-6.25,25.11-20.12,66.64-55.22,66.64-55.22,4.2-3.55,11.01-9.44,15.13-13.09l35.08-31.06c4.12-3.65,7.46-2.13,7.44,3.37l-.35,66.2c-.03,5.5-.05,10-.05,10.01s.09,4.5,.21,10c0,0,.02,1.02,.02,8.37,0,54.32-.03,152.97-.03,152.97,0,5.5,0,10.09,0,10.2s0,3.62-.01,7.8v6.45c-.08,2.89-.14,5.37-.14,5.51s0,.25,0,.24-.21,4.48-.46,9.97l-.58,4.93c-.85,7.19,1.61,9.8,8.82,9.59,12.19-.36,24.4-.24,36.61-.02,12.94,.23,21.78,8.72,21.76,20.5ZM178.86,173.52c-22.35,.18-45.58,22.13-53.32,51.39-8.53,32.24,4.2,62.91,30.37,65.51,27.49,2.75,54.71-26.57,59.05-61.9,3.9-31.8-12.82-55.19-36.1-55Zm97.32,71.54c5.5,0,7.75-3.89,5-8.65s-7.25-12.55-9.99-17.31-7.24-4.76-9.99,0-7.25,12.55-10,17.31-.49,8.65,5.01,8.65h19.98Zm130.66-20.15c-7.74-29.26-30.98-51.21-53.32-51.39-23.29-.19-40.01,23.2-36.11,55,4.34,35.33,31.56,64.65,59.06,61.9,26.17-2.6,38.89-33.27,30.37-65.51Z"/></g></svg>