<?xml version="1.0" encoding="UTF-8"?><svg id="Layer_2" xmlns="http://www.w3.org/2000/svg" xmlns:xlink="http://www.w3.org/1999/xlink" viewBox="0 0 58.2 53.7"><defs><linearGradient id="linear-gradient" x1="29.05" y1="532.23" x2="29.05" y2="588.46" gradientTransform="translate(0 -520)" gradientUnits="userSpaceOnUse"><stop offset="0" stop-color="#cc2a5e"/><stop offset="1" stop-color="#763b88"/></linearGradient></defs><g id="Layer_1-2"><path d="M55.8,44.5c-.2,1.2-1.2,2-2.4,1.8-1.9-.3-3.8-.7-5.7-1.1-.8-.2-1.3,0-1.8,.6-8.9,10.5-24.5,10.5-33.4,0-.5-.6-1-.8-1.8-.6-1.7,.4-3.5,.7-5.3,1-1.6,.3-2.6-.4-2.9-1.8-.2-1.3,.5-2.3,2.1-2.7l1.4-.2c1.7-.3,3-.8,3-1s4.1-2,9.4-3.7l1.3-.4c5.2-1.6,13.8-1.6,19.1,0l1.1,.3c5.2,1.7,9.5,3.2,9.5,3.3s1,1,2.3,1.3l1.2,.3c.4,.1,.8,.1,1.2,.3,1.2,.4,1.9,1.5,1.7,2.6h0Zm2.4-7.7c0,1.3-1,2.2-2.4,2.3h-5.8c-.3,.4-4.8-.9-9.9-2.9l-1.7-.7c-5.1-2-13.5-2-18.6,0l-1.7,.7c-5.1,2-9.6,3.3-9.9,2.9H2.5c-1.5,0-2.5-.9-2.6-2.2,0-1.3,1-2.3,2.6-2.3H6.5c.5,0,.8-.2,.8-.8-.1-5.1-.1-10.1-.1-15.2v-3.3c0-3.6,.1-6.6,.1-6.6,0,0,.1-2,.2-4.4s1.3-3.2,2.7-1.8,5,4.6,7.9,7.1l2.8,2.2c.5,.4,1.3,.7,2,.7h1.6c1.8,0,3.6,1,4,2.2s1.2,1.2,1.7,0,2.2-2.2,3.8-2.2h1.5c.6,0,1.4-.3,1.9-.7l2.8-2.2c3-2.5,6.7-5.7,8.2-7s2.6-.2,2.6,2.4V31.8h0v1.1l-.1,.5c-.1,.8,.2,1.1,1,1h4c1.4,.2,2.4,1.1,2.3,2.4h0ZM19.7,19.1c-2.5,0-5,2.4-5.9,5.6-.9,3.5,.5,6.9,3.3,7.2,3,.3,6-2.9,6.5-6.8,.5-3.5-1.4-6-3.9-6Zm9.6,7.9c1.2,0,2-.4,1.6-1s-.8-1.4-1.1-1.9-.8-.5-1.1,0-.8,1.4-1.1,1.9,.5,1,1.7,1Zm15.5-2.3c-.8-3.2-3.4-5.6-5.9-5.6s-4.4,2.5-4,6c.5,3.9,3.5,7.1,6.5,6.8,2.9-.2,4.3-3.6,3.4-7.2h0Z" style="fill:url(#linear-gradient);"/></g></svg>