<svg version="1.2" xmlns="http://www.w3.org/2000/svg" viewBox="0 0 59 54" width="59" height="54"><defs><linearGradient id="P" gradientUnits="userSpaceOnUse"/><linearGradient id="g1" x1="29" y1="12.2" x2="29.1" y2="68.5" href="#P"><stop stop-color="#cc2a5e"/><stop offset="1" stop-color="#763b88"/></linearGradient></defs><style>.a{fill:url(#g1)}</style><path fill-rule="evenodd" class="a" d="m55.8 44.5c-0.2 1.2-1.2 2-2.4 1.8-1.9-0.3-3.8-0.7-5.7-1.1-0.8-0.2-1.3 0-1.8 0.6-8.9 10.5-24.5 10.5-33.4 0-0.5-0.6-1-0.8-1.8-0.6-1.7 0.4-3.5 0.7-5.3 1-1.6 0.3-2.6-0.4-2.9-1.8-0.2-1.3 0.5-2.3 2.1-2.7l1.4-0.2c1.7-0.3 3-0.8 3-1 0-0.2 4.1-2 9.4-3.7l1.3-0.4c5.2-1.6 13.8-1.6 19.1 0l1.1 0.3c5.2 1.7 9.5 3.2 9.5 3.3 0 0.1 1 1 2.3 1.3l1.2 0.3c0.4 0.1 0.8 0.1 1.2 0.3 1.2 0.4 1.9 1.5 1.7 2.6zm2.4-7.7c0 1.3-1 2.2-2.4 2.3h-5.8c-0.3 0.4-4.8-0.9-9.9-2.9l-1.7-0.7c-5.1-2-13.5-2-18.6 0l-1.7 0.7c-5.1 2-9.6 3.3-9.9 2.9h-5.7c-1.5 0-2.5-0.9-2.6-2.2 0-1.3 1-2.3 2.6-2.3h4c0.5 0 0.8-0.2 0.8-0.8-0.1-5.1-0.1-10.1-0.1-15.2v-3.3c0-3.6 0.1-6.6 0.1-6.6 0 0 0.1-2 0.2-4.4 0.1-2.4 1.3-3.2 2.7-1.8 1.4 1.4 5 4.6 7.9 7.1l2.8 2.2c0.5 0.4 1.3 0.7 2 0.7h1.6c1.8 0 3.6 1 4 2.2 0.4 1.2 1.2 1.2 1.7 0 0.5-1.2 2.2-2.2 3.8-2.2h1.5c0.6 0 1.4-0.3 1.9-0.7l2.8-2.2c3-2.5 6.7-5.7 8.2-7 1.5-1.3 2.6-0.2 2.6 2.4v27.9l-0.1 0.5c-0.1 0.8 0.2 1.1 1 1h4c1.4 0.2 2.4 1.1 2.3 2.4zm-38.5-17.7c-2.5 0-5 2.4-5.9 5.6-0.9 3.5 0.5 6.9 3.3 7.2 3 0.3 6-2.9 6.5-6.8 0.5-3.5-1.4-6-3.9-6zm9.6 7.9c1.2 0 2-0.4 1.6-1-0.4-0.6-0.8-1.4-1.1-1.9-0.3-0.5-0.8-0.5-1.1 0-0.3 0.5-0.8 1.4-1.1 1.9-0.3 0.5 0.5 1 1.7 1zm15.5-2.3c-0.8-3.2-3.4-5.6-5.9-5.6-2.5 0-4.4 2.5-4 6 0.5 3.9 3.5 7.1 6.5 6.8 2.9-0.2 4.3-3.6 3.4-7.2z"/></svg>