<?xml version="1.0" encoding="UTF-8"?><svg id="Layer_2" xmlns="http://www.w3.org/2000/svg" xmlns:xlink="http://www.w3.org/1999/xlink" viewBox="0 0 58.24 53.73"><defs><style>.cls-1{fill:url(#linear-gradient);}</style><linearGradient id="linear-gradient" x1="29.12" y1="12.23" x2="29.12" y2="68.46" gradientTransform="matrix(1, 0, 0, 1, 0, 0)" gradientUnits="userSpaceOnUse"><stop offset="0" stop-color="#cc2a5e"/><stop offset="1" stop-color="#763b88"/></linearGradient></defs><g id="Layer_1-2"><path class="cls-1" d="M55.77,44.51c-.23,1.19-1.16,1.99-2.42,1.81-1.91-.27-3.81-.65-5.7-1.08-.81-.18-1.29,0-1.82,.63-8.9,10.46-24.54,10.46-33.39,0-.53-.63-1.01-.82-1.82-.63-1.74,.41-3.49,.74-5.26,1.03-1.6,.26-2.61-.41-2.88-1.75-.25-1.3,.51-2.32,2.06-2.67l1.48-.33c1.67-.33,3-.79,2.96-1.02s4.14-2.03,9.38-3.67l1.33-.42c5.25-1.64,13.83-1.63,19.08,.03l1.11,.35c5.24,1.66,9.51,3.16,9.47,3.33s.99,1.02,2.34,1.31l1.23,.26c.4,.08,.81,.14,1.2,.26,1.19,.36,1.86,1.42,1.64,2.56Zm2.47-7.71c0,1.31-.95,2.25-2.38,2.28-1.6,.04-3.21,0-4.81,.01h-1.03c-.32,.39-4.78-.92-9.9-2.91l-1.68-.65c-5.13-2-13.51-1.99-18.64,0l-1.66,.65c-5.12,2-9.56,3.31-9.86,2.92h-1.14c-1.53,0-3.06,.01-4.59,0-1.5-.02-2.53-.94-2.56-2.24-.03-1.34,1.04-2.29,2.6-2.3,1.34-.01,2.68-.01,4.03,0,.54,0,.81-.17,.8-.78-.06-5.06-.11-10.13-.14-15.19l-.02-3.28c.03-3.61,.05-6.58,.05-6.6s.08-1.99,.18-4.37,1.32-3.18,2.71-1.79,4.96,4.58,7.94,7.1l2.77,2.21c.53,.42,1.32,.71,2,.72l1.6,.02c1.76,.01,3.56,.99,3.99,2.17s1.18,1.18,1.67,0,2.2-2.16,3.81-2.17l1.46-.02c.64,0,1.4-.28,1.9-.69l2.76-2.21c2.97-2.51,6.65-5.67,8.16-7.01s2.74-.3,2.73,2.3l-.02,4.74,.03,1.21v.81c0,5.97,0,7.92,0,7.92,0,5.5,0,10.01,0,10.02v1.57c0,.32-.02,.59-.02,.61v.03s-.02,.49-.05,1.1l-.06,.54c-.09,.79,.18,1.08,.97,1.05,1.34-.04,2.68-.03,4.03,0,1.42,.03,2.4,.96,2.39,2.25ZM19.67,19.09c-2.46,.02-5.01,2.43-5.86,5.65-.94,3.55,.46,6.92,3.34,7.21,3.02,.3,6.02-2.92,6.49-6.81,.43-3.5-1.41-6.07-3.97-6.05Zm9.61,7.87c1.21,0,1.95-.43,1.65-.95s-.8-1.38-1.1-1.9-.8-.52-1.1,0-.8,1.38-1.1,1.9,.44,.95,1.65,.95Zm15.47-2.22c-.85-3.22-3.41-5.63-5.86-5.65-2.56-.02-4.4,2.55-3.97,6.05,.48,3.89,3.47,7.11,6.5,6.81,2.88-.29,4.28-3.66,3.34-7.21Z"/></g></svg>